<svg aria-hidden="true" style="position:absolute;width:0;height:0" xmlns="http://www.w3.org/2000/svg" overflow="hidden"><defs><symbol id="icon-instagram" viewBox="0 0 32 32"><path fill="var(--color1, #d43377)" d="M0 0h32v32H0V0z"/><path fill="none" stroke="var(--color2, #fff)" stroke-width="1.813" d="M11.625 6.75h8.75a4.875 4.875 0 0 1 4.875 4.875v8.75a4.875 4.875 0 0 1-4.875 4.875h-8.75a4.875 4.875 0 0 1-4.875-4.875v-8.75a4.875 4.875 0 0 1 4.875-4.875z"/><path fill="none" stroke="var(--color2, #fff)" stroke-width="1.813" d="M20.313 16a4.313 4.313 0 1 1-8.626 0 4.313 4.313 0 0 1 8.626 0z"/><path fill="var(--color2, #fff)" d="M22.625 10.563a1.188 1.188 0 1 1-2.376 0 1.188 1.188 0 0 1 2.376 0z"/></symbol><symbol id="icon-quotes-rotate" viewBox="0 0 35 32"><path fill="var(--color3, #f6762c)" d="M12.149 0H4.05C2.925 0 1.969.424 1.181 1.273S0 3.152 0 4.364v8.727c0 1.212.394 2.242 1.181 3.091s1.744 1.273 2.869 1.273h4.725c.562 0 1.04.212 1.434.636s.591.939.591 1.546v.727c0 1.606-.527 2.977-1.582 4.114S6.891 26.182 5.4 26.182H4.05c-.366 0-.682.144-.949.432s-.401.629-.401 1.023v2.909c0 .393.134.735.401 1.023s.583.432.949.432H5.4c1.463 0 2.858-.307 4.187-.921s2.478-1.443 3.448-2.489c.97-1.046 1.74-2.284 2.309-3.716s.854-2.936.854-4.511v-16c0-1.212-.394-2.243-1.181-3.091S13.273 0 12.149 0zM33.917 1.273C33.13.425 32.174 0 31.049 0H22.95c-1.125 0-2.081.424-2.868 1.273s-1.181 1.879-1.181 3.091v8.727c0 1.212.394 2.242 1.181 3.091s1.743 1.273 2.868 1.273h4.725c.562 0 1.041.212 1.434.636s.591.939.591 1.546v.727c0 1.606-.527 2.977-1.582 4.114s-2.327 1.704-3.817 1.704h-1.35c-.366 0-.682.144-.949.432s-.401.629-.401 1.023v2.909c0 .393.134.735.401 1.023s.584.432.949.432h1.35c1.462 0 2.858-.307 4.187-.921s2.478-1.443 3.448-2.489c.97-1.046 1.741-2.284 2.31-3.716s.854-2.936.854-4.511v-16c0-1.212-.394-2.243-1.181-3.091z"/></symbol><symbol id="icon-quotes" viewBox="0 0 35 32"><path fill="var(--color3, #f6762c)" d="M22.951 0h8.099c1.125 0 2.081.424 2.869 1.273S35.1 3.152 35.1 4.364v8.727c0 1.212-.394 2.242-1.181 3.091s-1.744 1.273-2.869 1.273h-4.725c-.562 0-1.04.212-1.434.636s-.591.939-.591 1.546v.727c0 1.606.527 2.977 1.582 4.114s2.327 1.704 3.818 1.704h1.35c.366 0 .682.144.949.432s.401.629.401 1.023v2.909c0 .393-.133.735-.401 1.023s-.584.432-.949.432H29.7c-1.462 0-2.858-.307-4.187-.921s-2.478-1.443-3.448-2.489c-.97-1.046-1.74-2.284-2.309-3.716s-.854-2.936-.854-4.511v-16c0-1.212.394-2.243 1.181-3.091S21.827 0 22.951 0zM1.183 1.273C1.97.425 2.926 0 4.051 0h8.099c1.125 0 2.081.424 2.868 1.273s1.181 1.879 1.181 3.091v8.727c0 1.212-.394 2.242-1.181 3.091s-1.743 1.273-2.868 1.273H7.425c-.562 0-1.041.212-1.434.636s-.591.939-.591 1.546v.727c0 1.606.527 2.977 1.582 4.114s2.327 1.704 3.817 1.704h1.35c.366 0 .682.144.949.432s.401.629.401 1.023v2.909c0 .393-.134.735-.401 1.023s-.584.432-.949.432h-1.35c-1.462 0-2.858-.307-4.187-.921s-2.478-1.443-3.448-2.489c-.97-1.046-1.741-2.284-2.31-3.716S0 21.939 0 20.364v-16c0-1.212.394-2.243 1.181-3.091z"/></symbol><symbol id="icon-facebook" viewBox="0 0 32 32"><path fill="var(--color4, #3b5999)" d="M3.473 0h25.054A3.473 3.473 0 0 1 32 3.473v25.054A3.473 3.473 0 0 1 28.527 32H3.473A3.473 3.473 0 0 1 0 28.527V3.473A3.473 3.473 0 0 1 3.473 0z"/><path fill="var(--color2, #fff)" d="M10.419 13.147h3.349v-.62c0-.992-.124-2.233 0-3.225.124-2.357 1.364-3.845 4.589-3.969l3.225.124V8.93c-1.364 0-3.721-.496-3.969 1.24v2.977h3.721l-.372 3.845h-3.349v9.674h-3.845v-9.674l-3.349-.124v-3.721z"/><path fill="var(--color5, #30487c)" d="M32 15.876 21.581 5.457V8.93c-1.364 0-3.721-.496-3.969 1.24v2.977h3.721l-.372 3.845h-3.349v9.674h-3.845l5.333 5.333h9.426l3.473-3.473V15.875z"/></symbol><symbol id="icon-linkedin" viewBox="0 0 32 32"><path fill="var(--color6, #007fb5)" d="M5.6 0h20.8A5.6 5.6 0 0 1 32 5.6v20.8a5.6 5.6 0 0 1-5.6 5.6H5.6A5.6 5.6 0 0 1 0 26.4V5.6A5.6 5.6 0 0 1 5.6 0z"/><path fill="var(--color2, #fff)" d="M4.495 11.77H9.01v16.36H4.495V11.77zM24.1 11.77c-3.33-1.27-5.74.88-6.77 2.08v-2.08h-4.5v16.36h4.5V19.5l-.001-.099c0-1.105.424-2.111 1.119-2.864l-.003.003a2.37 2.37 0 0 1 1.7-.835h.005l.052-.001c.749 0 1.427.304 1.918.795.526.549.851 1.296.851 2.119l-.001.059v-.003 9.455h5.08v-10.13s.565-4.54-3.95-6.23zM9.57 6.69a2.82 2.82 0 1 1-5.641-.001 2.82 2.82 0 0 1 5.641.001z"/></symbol><symbol id="icon-twitter" viewBox="0 0 32 32"><path fill="var(--color7, #6bcfed)" d="M3.451 0h25.098A3.45 3.45 0 0 1 32 3.451v25.098A3.45 3.45 0 0 1 28.549 32H3.451A3.45 3.45 0 0 1 0 28.549V3.451A3.45 3.45 0 0 1 3.451 0z"/><path fill="var(--color2, #fff)" d="M15.895 12.758c-3.242-.209-6.379-1.359-8.993-4.497-1.15 1.882-.523 4.392 1.359 5.752-.627 0-1.359-.209-1.987-.523.105 2.196 1.255 3.556 3.451 4.288-.627.105-1.255.209-1.882.105.523 1.673 1.778 2.824 3.974 2.928-1.673 1.464-3.765 2.091-6.379 1.882 7.739 4.81 18.824.418 18.928-10.98a9.195 9.195 0 0 0 2.196-2.301c-.732.314-1.569.627-2.405.732.941-.627 1.464-1.464 1.778-2.405-.837.523-1.673.837-2.719 1.046-3.66-3.346-8.261.209-7.32 3.974z"/><path fill="var(--color8, #57a9c2)" d="m32 13.699-6.065-5.961c-.314.941-.837 1.778-1.778 2.405.837-.105 1.673-.418 2.405-.732a9.23 9.23 0 0 1-2.196 2.301c-.105 11.399-11.19 15.791-18.928 10.98l9.412 9.307h13.699L32 28.548v-14.85z"/></symbol><symbol id="icon-mastercard" viewBox="0 0 53 32"><path fill="var(--color9, #ffb600)" d="M52.759 16.528c0 8.514-6.877 15.473-15.472 15.473-8.514 0-15.473-6.959-15.473-15.473S28.691 1.056 37.205 1.056c8.678 0 15.554 6.959 15.554 15.472z"/><path fill="var(--color10, #f7981d)" d="M37.287 1.055c8.514 0 15.472 6.959 15.472 15.472S45.882 32 37.287 32c-8.514 0-15.473-6.959-15.473-15.473z"/><path fill="var(--color11, #ff8500)" d="M37.286 1.055c8.514 0 15.473 6.959 15.473 15.472S45.882 32 37.286 32z"/><path fill="var(--color12, #ff5050)" d="M16.493 1.055C8.061 1.137 1.184 8.014 1.184 16.527S8.061 32 16.657 32c4.011 0 7.613-1.555 10.397-4.011.573-.491 1.064-1.064 1.555-1.637h-3.193a18.848 18.848 0 0 1-1.146-1.555h5.485c.327-.491.655-1.064.9-1.637h-7.286a9.738 9.738 0 0 1-.655-1.637h8.514c.491-1.555.819-3.193.819-4.912 0-1.146-.164-2.21-.327-3.275h-9.496c.082-.573.246-1.064.409-1.637h8.514a9.738 9.738 0 0 0-.655-1.637h-7.204c.245-.573.573-1.064.9-1.637h5.485a7.77 7.77 0 0 0-1.228-1.637h-3.029c.491-.573.982-1.064 1.555-1.555-2.702-2.538-6.385-4.011-10.397-4.011 0-.164 0-.164-.082-.164z"/><path fill="var(--color13, #e52836)" d="M1.185 16.528c0 8.514 6.877 15.473 15.473 15.473 4.011 0 7.613-1.555 10.397-4.011.573-.491 1.064-1.064 1.555-1.637h-3.193a18.848 18.848 0 0 1-1.146-1.555h5.485c.327-.491.655-1.064.9-1.637H23.37a9.738 9.738 0 0 1-.655-1.637h8.514c.491-1.555.819-3.193.819-4.912 0-1.146-.164-2.21-.327-3.275h-9.496c.082-.573.246-1.064.409-1.637h8.514a9.738 9.738 0 0 0-.655-1.637h-7.204c.245-.573.573-1.064.9-1.637h5.485a7.77 7.77 0 0 0-1.228-1.637h-3.029c.491-.573.982-1.064 1.555-1.555-2.702-2.538-6.385-4.011-10.397-4.011h-.082z"/><path fill="var(--color14, #cb2026)" d="M16.658 32c4.011 0 7.613-1.555 10.397-4.011.573-.491 1.064-1.064 1.555-1.637h-3.193a18.848 18.848 0 0 1-1.146-1.555h5.485c.327-.491.655-1.064.901-1.637h-7.286a9.823 9.823 0 0 1-.655-1.637h8.514c.491-1.555.819-3.193.819-4.912 0-1.146-.164-2.21-.327-3.275h-9.496c.082-.573.246-1.064.409-1.637h8.514a9.738 9.738 0 0 0-.655-1.637H23.29c.246-.573.573-1.064.901-1.637h5.485a7.77 7.77 0 0 0-1.228-1.637h-3.029c.491-.573.982-1.064 1.555-1.555-2.702-2.538-6.386-4.011-10.397-4.011h-.082z"/><path fill="var(--color2, #fff)" d="m22.14 20.456.246-1.392c-.082 0-.246.082-.409.082-.573 0-.655-.327-.573-.491l.491-2.865h.901l.245-1.555h-.819l.164-.982h-1.637s-.982 5.403-.982 6.058c0 .982.573 1.392 1.31 1.392.491 0 .9-.164 1.064-.246zM22.719 17.836c0 2.292 1.555 2.865 2.865 2.865 1.228 0 1.719-.246 1.719-.246l.327-1.555s-.9.409-1.719.409c-1.801 0-1.474-1.31-1.474-1.31h3.357s.245-1.064.245-1.474c0-1.064-.573-2.374-2.374-2.374-1.719-.164-2.947 1.637-2.947 3.684zm2.865-2.374c.901 0 .737 1.064.737 1.146H24.52c0-.082.164-1.146 1.064-1.146zM35.989 20.456l.327-1.801s-.819.409-1.392.409c-1.146 0-1.637-.9-1.637-1.883 0-1.965.982-3.029 2.128-3.029.819 0 1.474.491 1.474.491l.245-1.719s-.982-.409-1.883-.409c-1.883 0-3.766 1.637-3.766 4.748 0 2.047.982 3.438 2.947 3.438.655 0 1.555-.246 1.555-.246zM13.139 13.988c-1.146 0-1.965.327-1.965.327l-.246 1.392s.737-.327 1.801-.327c.573 0 1.064.082 1.064.573 0 .327-.082.409-.082.409h-.737c-1.392 0-2.947.573-2.947 2.456 0 1.474.982 1.801 1.555 1.801 1.146 0 1.637-.737 1.719-.737l-.082.655h1.474l.655-4.503c0-1.965-1.637-2.047-2.21-2.047zm.328 3.684c0 .245-.164 1.555-1.146 1.555-.491 0-.655-.409-.655-.655 0-.409.246-.982 1.474-.982.246.082.327.082.327.082zM16.905 20.619c.409 0 2.456.082 2.456-2.129 0-2.047-1.965-1.637-1.965-2.456 0-.409.327-.573.901-.573.245 0 1.146.082 1.146.082l.246-1.474s-.573-.164-1.555-.164c-1.228 0-2.456.491-2.456 2.128 0 1.883 2.047 1.719 2.047 2.456 0 .491-.573.573-.982.573-.737 0-1.474-.246-1.474-.246l-.246 1.474c.082.164.491.327 1.883.327zM49.576 12.679l-.327 2.21s-.655-.819-1.556-.819c-1.474 0-2.783 1.801-2.783 3.93 0 1.31.655 2.702 2.047 2.702.982 0 1.555-.655 1.555-.655l-.082.573h1.637l1.228-7.859-1.719-.082zm-.737 4.338c0 .901-.409 2.047-1.31 2.047-.573 0-.9-.491-.9-1.31 0-1.31.573-2.128 1.31-2.128.573 0 .9.409.9 1.392zM4.221 20.538l.982-5.894.164 5.894h1.146l2.129-5.894-.901 5.894H9.46l1.31-7.859H8.068l-1.637 4.83-.082-4.83H3.975l-1.31 7.859H4.22zM29.599 20.537c.491-2.702.573-4.912 1.719-4.503.164-1.064.409-1.474.573-1.883h-.327c-.737 0-1.31.982-1.31.982l.164-.901h-1.555l-1.064 6.385H29.6v-.082zM39.753 13.988c-1.146 0-1.965.327-1.965.327l-.245 1.392s.737-.327 1.801-.327c.573 0 1.064.082 1.064.573 0 .327-.082.409-.082.409h-.737c-1.392 0-2.947.573-2.947 2.456 0 1.474.982 1.801 1.555 1.801 1.146 0 1.637-.737 1.719-.737l-.082.655h1.474l.655-4.503c.082-1.965-1.637-2.047-2.21-2.047zm.409 3.684c0 .245-.164 1.555-1.146 1.555-.491 0-.655-.409-.655-.655 0-.409.246-.982 1.474-.982.246.082.246.082.327.082zM43.349 20.537c.491-2.702.573-4.912 1.719-4.503.164-1.064.409-1.474.573-1.883h-.327c-.737 0-1.31.982-1.31.982l.164-.901h-1.556l-1.064 6.385h1.801v-.082z"/><path fill="var(--color15, #dce5e5)" d="M19.606 19.31c0 .982.573 1.392 1.31 1.392.573 0 1.064-.164 1.228-.246l.245-1.392c-.082 0-.245.082-.409.082-.573 0-.655-.327-.573-.491l.491-2.865h.901l.245-1.555h-.819l.164-.982zM23.534 17.836c0 2.292.737 2.865 2.047 2.865 1.228 0 1.719-.246 1.719-.246l.327-1.555s-.9.409-1.719.409c-1.801 0-1.474-1.31-1.474-1.31h3.357s.246-1.064.246-1.474c0-1.064-.573-2.374-2.374-2.374-1.719-.164-2.129 1.637-2.129 3.684zm2.047-2.374c.901 0 1.064 1.064 1.064 1.146h-2.129c0-.082.164-1.146 1.064-1.146zM35.986 20.456l.327-1.801s-.819.409-1.392.409c-1.146 0-1.637-.9-1.637-1.883 0-1.965.982-3.029 2.129-3.029.819 0 1.474.491 1.474.491l.246-1.719s-.982-.409-1.883-.409c-1.883 0-2.947 1.637-2.947 4.748 0 2.047.164 3.438 2.129 3.438.655 0 1.555-.246 1.555-.246zM10.929 15.789s.737-.327 1.801-.327c.573 0 1.064.082 1.064.573 0 .327-.082.409-.082.409h-.737c-1.392 0-2.947.573-2.947 2.456 0 1.474.982 1.801 1.555 1.801 1.146 0 1.637-.737 1.719-.737l-.082.655h1.474l.655-4.503c0-1.883-1.637-1.965-2.292-1.965l-2.128 1.637zm3.356 1.883c0 .246-.982 1.555-1.965 1.555-.491 0-.655-.409-.655-.655 0-.409.246-.982 1.474-.982.246.082 1.146.082 1.146.082zM15.106 20.455s.491.164 1.883.164c.409 0 2.456.082 2.456-2.129 0-2.047-1.965-1.637-1.965-2.456 0-.409.327-.573.9-.573.246 0 1.146.082 1.146.082l.246-1.474s-.573-.164-1.555-.164c-1.228 0-1.637.491-1.637 2.128 0 1.883 1.228 1.719 1.228 2.456 0 .491-.573.573-.982.573zM49.244 14.889s-.655-.819-1.556-.819c-1.474 0-1.965 1.801-1.965 3.93 0 1.31-.164 2.702 1.228 2.702.982 0 1.556-.655 1.556-.655l-.082.573h1.637l1.228-7.859-2.047 2.128zm-.082 2.128c0 .9-.737 2.047-1.637 2.047-.573 0-.901-.491-.901-1.31 0-1.31.573-2.128 1.31-2.128.573 0 1.228.409 1.228 1.392zM4.221 20.538l.982-5.894.164 5.894h1.146l2.129-5.894-.901 5.894H9.46l1.31-7.859H8.723l-2.292 4.83-.082-4.83h-.901l-2.783 7.859H4.22zM27.878 20.537h1.719c.491-2.702.573-4.912 1.719-4.503.164-1.064.409-1.474.573-1.883h-.327c-.737 0-1.31.982-1.31.982l.164-.901zM37.543 15.789s.737-.327 1.801-.327c.573 0 1.064.082 1.064.573 0 .327-.082.409-.082.409h-.737c-1.392 0-2.947.573-2.947 2.456 0 1.474.982 1.801 1.555 1.801 1.146 0 1.637-.737 1.719-.737l-.082.655h1.474l.655-4.503c0-1.883-1.637-1.965-2.292-1.965l-2.128 1.637zm3.356 1.883c0 .246-.982 1.555-1.965 1.555-.491 0-.655-.409-.655-.655 0-.409.245-.982 1.474-.982.327.082 1.146.082 1.146.082zM41.635 20.537h1.719c.491-2.702.573-4.912 1.719-4.503.164-1.064.409-1.474.573-1.883h-.327c-.737 0-1.31.982-1.31.982l.164-.901z"/></symbol><symbol id="icon-paypall" viewBox="0 0 28 32"><path fill="var(--color16, #03a9f4)" d="M24.248 7.359a.664.664 0 0 0-1 .503 7.268 7.268 0 0 1-.108.667c-1.305 5.924-3.927 8.805-8.016 8.805h-6a.667.667 0 0 0-.652.533l-2 9.375-.357 2.387a2 2 0 0 0 1.956 2.372h4.013a1.99 1.99 0 0 0 1.94-1.519l1.621-6.481h3.479c4.105 0 6.943-3.273 7.989-9.217a6.968 6.968 0 0 0-2.865-7.424z"/><path fill="var(--color17, #283593)" d="M22.989 2.376A7.017 7.017 0 0 0 17.789 0H6.749A3.317 3.317 0 0 0 3.45 2.835L.022 25.703A2 2 0 0 0 2.002 28h5.12a.667.667 0 0 0 .652-.533l1.887-8.8h5.467c4.744 0 7.879-3.316 9.319-9.867.058-.261.102-.525.133-.791a6.884 6.884 0 0 0-1.591-5.633z"/></symbol><symbol id="icon-visa" viewBox="0 0 98 32"><path fill="var(--color18, #2394bc)" d="m39.984.769-4.756 29.597h7.602L47.583.769h-7.599zm22.931 12.056c-2.657-1.312-4.285-2.197-4.285-3.539.033-1.22 1.377-2.47 4.38-2.47 2.47-.062 4.285.518 5.662 1.096l.69.308 1.034-6.192c-1.502-.58-3.882-1.22-6.823-1.22-7.507 0-12.794 3.903-12.827 9.486-.062 4.12 3.785 6.406 6.664 7.777 2.941 1.407 3.942 2.319 3.942 3.569-.032 1.919-2.378 2.804-4.566 2.804-3.032 0-4.661-.456-7.134-1.525l-1.001-.456-1.063 6.436c1.786.794 5.07 1.492 8.479 1.528 7.978 0 13.17-3.844 13.235-9.794.026-3.264-2.002-5.763-6.385-7.807zM89.885.86h-5.882c-1.812 0-3.19.521-3.974 2.381L68.737 30.366h7.978l2.197-5.873h8.926l1.14 5.896h7.037L89.885.86zm-8.76 17.707c.154.015 3.062-9.586 3.062-9.586l2.316 9.586h-5.378zM28.876.769l-7.448 20.109-.811-3.966c-1.377-4.576-5.695-9.548-10.513-12.018l6.82 25.442h8.044L36.921.771 28.877.768z"/><path fill="var(--color19, #efc75e)" d="M18.113 4.587C17.533 2.33 15.681.808 13.167.776H1.371l-.121.548c9.202 2.268 16.925 9.249 19.43 15.814L18.112 4.587z"/></symbol><symbol id="icon-application-1" viewBox="0 0 21 32"><path fill="var(--color20, #f98aab)" d="M12.017 7.765c1.64-.681 2.522-2.267 2.123-3.818s-1.972-2.653-3.787-2.653-3.388 1.102-3.787 2.653.483 3.137 2.124 3.818h3.327z"/><path fill="var(--color20, #f98aab)" d="M5.953 9.059a.503.503 0 0 1-.377-.172C3.426 6.481 3.31 2.759 5.306.209c.116-.156.303-.233.489-.202s.34.167.404.353a.569.569 0 0 1-.096.545C4.439 3.03 4.537 6.133 6.33 8.136c.141.159.18.392.098.592s-.269.33-.475.33zM15.561 6.471c-.199 0-.383-.084-.486-.221s-.111-.308-.021-.451c1.04-1.637.773-3.618-.679-5.035-.136-.127-.176-.303-.105-.46s.241-.272.446-.298.411.039.539.17c1.742 1.701 2.063 4.078.815 6.044-.098.154-.294.251-.508.251z"/><path fill="var(--color20, #f98aab)" d="M20.706 14.804v8.346s0 2.842-1.729 4.487a1.027 1.027 0 0 0-.299.749v1.618c-.002.582-.455 1.053-1.014 1.055H9.55c-.56-.002-1.013-.473-1.014-1.055v-.195a3.197 3.197 0 0 0-.908-2.246c-.979-.991-2.49-2.705-3.149-4.413-1.014-2.636-3.043-6.327-4.057-7.381s0-2.109 1.014-2.109 3.043 2.109 4.057 3.691c.323.509.701.978 1.126 1.397.252.244.607.337.941.248s.6-.35.707-.691c.193-.65.284-1.329.269-2.009V4.17c-.003-.67.405-1.268 1.014-1.487.162-.064.334-.096.507-.095.84 0 1.521.708 1.521 1.582v6.327c-.003-.67.405-1.268 1.014-1.487.162-.064.334-.096.507-.095.84 0 1.521.708 1.521 1.582v1.582c0-.419.161-.822.446-1.118a1.43 1.43 0 0 1 .568-.369c.162-.064.334-.096.507-.095.84 0 1.521.708 1.521 1.582v2.636c0-.419.16-.822.446-1.118a1.43 1.43 0 0 1 .568-.369c.198-.075.409-.106.619-.089.815.09 1.427.814 1.41 1.666z"/><path fill="var(--color21, #f8edf0)" d="M10.381 2.621a1.452 1.452 0 0 0-.522.094 1.551 1.551 0 0 0-1.045 1.473v12.015a6.24 6.24 0 0 1-.277 1.99 1.06 1.06 0 0 1-.47.575 1.04 1.04 0 0 0 1.515-.574 6.24 6.24 0 0 0 .277-1.99V4.189a1.55 1.55 0 0 1 1.045-1.473 1.458 1.458 0 0 0-.523-.094zM12.994 8.984a1.551 1.551 0 0 0-1.045 1.473v4.702a.522.522 0 1 0 1.044 0v-4.702a1.55 1.55 0 0 1 1.045-1.473 1.503 1.503 0 0 0-1.045 0zM16.134 10.552a1.565 1.565 0 0 0-1.045 1.473v3.135a.522.522 0 1 0 1.045 0v-3.135a1.551 1.551 0 0 1 1.045-1.473 1.503 1.503 0 0 0-1.045 0zM19.789 13.069a1.452 1.452 0 0 0-.522.094 1.565 1.565 0 0 0-1.045 1.473v1.045a.523.523 0 1 0 1.045 0v-1.045a1.551 1.551 0 0 1 1.045-1.473 1.456 1.456 0 0 0-.522-.094zM18.765 18.118c-.357 0-.647.217-.647.485v2.912c0 .268.29.485.647.485s.647-.217.647-.485v-2.912c0-.268-.29-.485-.647-.485zM18.993 23.294c-.232.005-.422.276-.44.623-.032.329-.14.63-.304.852-.112.162-.156.403-.117.629s.157.403.307.462.31-.008.418-.177c.327-.456.526-1.083.555-1.752 0-.349-.187-.633-.419-.638zM11.216 28.471h-.431c-.238 0-.431.29-.431.647s.193.647.431.647h.431c.238 0 .431-.29.431-.647s-.193-.647-.431-.647zM16.392 28.471h-3.02c-.238 0-.431.29-.431.647s.193.647.431.647h3.02c.238 0 .431-.29.431-.647s-.193-.647-.431-.647z"/></symbol><symbol id="icon-application-2" viewBox="0 0 32 32"><path fill="var(--color22, #f9c2d2)" d="M26.375 27.25H8.562c-1.551 0-2.813-1.262-2.813-2.813s1.262-2.812 2.813-2.812h2.813L9.685 23.5H8.563a.939.939 0 0 0 0 1.876h17.813v1.875z"/><path fill="var(--color20, #f98aab)" d="M17.938 25.375h8.438v1.875h-8.438v-1.875z"/><path fill="var(--color20, #f98aab)" opacity=".5" d="m6.774 10.375-.838-3.75H0V4.75h7.439l1.624 7.273-2.29-1.648z"/><path fill="var(--color22, #f9c2d2)" d="m21.966 10.696-.28-.321H6.778L9.688 23.5h16.478l3.304-12.786c-.642.16-4.439 3.505-7.505-.017zm4.716 3.311L26.167 16h-4.396l.238-2.86a6.68 6.68 0 0 0 4.673.867zM15.99 16l-.313-3.75h4.526L19.89 16h-3.901zm3.744 1.875-.313 3.75h-2.963l-.313-3.75h3.588zm-5.937-5.625L14.11 16H9.946l-.831-3.75h4.682zm-3.436 5.625h3.904l.313 3.75h-3.385l-.831-3.75zm10.941 3.75.313-3.75h4.068l-.969 3.75h-3.412z"/><path fill="var(--color20, #f98aab)" d="m21.963 10.696-.28-.321h-3.745v1.875h2.263L19.888 16h-1.95v1.875h1.794l-.313 3.75h-1.482V23.5h8.226l3.304-12.786c-.642.16-4.439 3.505-7.505-.017zm2.749 10.929H21.3l.313-3.75h4.068l-.969 3.75zm1.968-7.618L26.165 16h-4.396l.238-2.86a6.68 6.68 0 0 0 4.673.867z"/><path fill="var(--color23, #665151)" d="M12.313 31C10.762 31 9.5 29.738 9.5 28.187s1.262-2.812 2.813-2.812c1.551 0 2.813 1.262 2.813 2.812S13.864 31 12.313 31z"/><path fill="var(--color24, #4d3535)" d="M21.688 31c-1.551 0-2.813-1.262-2.813-2.813s1.262-2.812 2.813-2.812c1.551 0 2.813 1.262 2.813 2.812S23.239 31 21.688 31z"/><path fill="var(--color22, #f9c2d2)" d="M25.438 14.125c-3.719 0-6.563-3.038-6.563-6.563 0-3.618 2.944-6.563 6.563-6.563s6.563 2.944 6.563 6.563c0 3.706-3.011 6.563-6.563 6.563z"/><path fill="var(--color25, #fff7e6)" d="M12.313 29.125a.938.938 0 1 0 0-1.876.938.938 0 0 0 0 1.876z"/><path fill="var(--color26, #ffeacc)" d="M21.688 29.125a.938.938 0 1 0 0-1.876.938.938 0 0 0 0 1.876z"/><path fill="var(--color20, #f98aab)" d="M32 7.563A6.57 6.57 0 0 0 25.437 1v13.125c3.552 0 6.563-2.856 6.563-6.563z"/><path fill="var(--color2, #fff)" d="M28.25 6.625h-1.875V4.75H24.5v1.875h-1.875V8.5H24.5v1.875h1.875V8.5h1.875V6.625z"/><path fill="var(--color2, #fff)" d="M25.438 4.75v5.625h.938V8.5h1.875V6.625h-1.875V4.75h-.938z"/></symbol><symbol id="icon-application-3" viewBox="0 0 39 32"><path fill="var(--color20, #f98aab)" d="M5.308 11.206h5.961a.769.769 0 1 0 0-1.538H5.308a.769.769 0 1 0 0 1.538zM5.308 16.534h5.961a.769.769 0 1 0 0-1.538H5.308a.769.769 0 1 0 0 1.538zM12.698 29.428a.776.776 0 0 0-1.005-.416c-.387.16-.576.618-.415 1.005s.616.576 1.004.416a.776.776 0 0 0 .416-1.005z"/><path fill="var(--color20, #f98aab)" d="m39.178 17.523-9.15-9.822 2.801-2.795a2.523 2.523 0 0 0 .755-1.808c0-.675-.261-1.31-.736-1.789a2.564 2.564 0 0 0-3.599-.028l-.007.007-3.841 3.832h-1.435V2.166a.769.769 0 0 0-.769-.769h-4.073V.769a.769.769 0 1 0-1.538 0v.628h-2.81V.769a.769.769 0 1 0-1.538 0v.628h-2.81V.769a.769.769 0 1 0-1.538 0v.628H6.08V.769a.769.769 0 1 0-1.538 0v.628H.772a.769.769 0 0 0-.769.769V29.72c0 .425.344.769.769.769h7.852a.77.77 0 0 0 0-1.538H1.542V2.935h3.001v.698a.769.769 0 1 0 1.538 0v-.698h2.81v.698a.769.769 0 1 0 1.538 0v-.698h2.81v.698a.769.769 0 1 0 1.538 0v-.698h2.81v.698a.769.769 0 1 0 1.538 0v-.698h3.304v2.189a5.561 5.561 0 0 0-3.681 1.614l-5.661 5.661a.776.776 0 0 0 .126 1.19 5.227 5.227 0 0 0 2.854.84h.004l-.883.881a.772.772 0 0 0-.153.219l-2.468 3.706a1.683 1.683 0 0 0-.28 1.085H5.309a.769.769 0 1 0 0 1.538h8.663c.333 0 .669-.111.943-.297l3.751-2.549a.801.801 0 0 0 .125-.101l1.74-1.736 1.898 1.894v9.88H15.39a.769.769 0 1 0 0 1.538h7.808a.77.77 0 0 0 .769-.769V20.57a5.394 5.394 0 0 0 3.465 1.248h3.069c.638 0 1.257.265 1.694.722l5.861 6.228c.466.495 1.329.154 1.329-.527V18.045a.77.77 0 0 0-.206-.524zM19.835 7.827a4 4 0 0 1 2.819-1.168h1.205l-4.793 4.781c-.443.426-.863.843-1.431 1.106a3.762 3.762 0 0 1-2.693.172l4.892-4.892zm10.489-5.444a1.023 1.023 0 0 1 1.432.01c.187.189.29.44.29.706a1 1 0 0 1-.3.716l-8.039 8.02-.387-.387a3.004 3.004 0 0 0-1.315-.766l8.32-8.3zM14.05 20.29c-.066.045-.127.04-.184-.017-.085-.084-.042-.149-.019-.184l2.01-3.019 1.187 1.186-2.995 2.035zm4.198-3.009-1.427-1.427 1.466-1.462c.138.501.413.958.779 1.325l.375.375-1.193 1.19zm19.598 9.023-4.535-4.82a3.905 3.905 0 0 0-2.811-1.202h-3.069a3.873 3.873 0 0 1-2.752-1.137l-4.53-4.52c-.654-.49-.508-1.578 0-2.094.571-.556 1.522-.554 2.081.004l3.68 3.68a.778.778 0 0 0 1.088 0c.3-.3.3-.787 0-1.088l-2.205-2.205 4.145-4.135 8.907 9.561v7.953z"/></symbol><symbol id="icon-bracket" viewBox="0 0 32 32"><path fill="var(--color27, #d64374)" d="m24.888 17.249-14.24 14.24c-.329.33-.769.511-1.238.511s-.908-.181-1.238-.511l-1.049-1.048a1.754 1.754 0 0 1 0-2.476l11.958-11.958L7.11 4.036c-.329-.33-.511-.769-.511-1.238s.182-.908.511-1.238L8.159.512c.33-.33.769-.511 1.238-.511s.908.182 1.238.511l14.254 14.253c.33.331.512.772.51 1.242.001.471-.18.912-.51 1.243z"/></symbol></defs></svg>